<mxfile host="app.diagrams.net" modified="2022-06-22T03:53:11.447Z" agent="5.0 (Windows NT 10.0; Win64; x64) AppleWebKit/537.36 (KHTML, like Gecko) Chrome/102.0.0.0 Safari/537.36" etag="xewPYpPlMZ04XPcUV1Bm" version="20.0.1" type="github">
  <diagram id="5hiqjDNLy4zyRDHusccU" name="Page-1">
    <mxGraphModel dx="3746" dy="1603" grid="0" gridSize="10" guides="1" tooltips="1" connect="1" arrows="1" fold="1" page="0" pageScale="1" pageWidth="1100" pageHeight="850" math="0" shadow="0">
      <root>
        <mxCell id="0" />
        <mxCell id="1" parent="0" />
        <mxCell id="PGIYKK-JV2RwreKTZmfG-104" value="" style="rounded=1;whiteSpace=wrap;html=1;fontSize=16;fillColor=#ffff88;strokeColor=#36393d;" vertex="1" parent="1">
          <mxGeometry x="145" y="1994" width="682" height="149" as="geometry" />
        </mxCell>
        <mxCell id="PGIYKK-JV2RwreKTZmfG-103" value="" style="rounded=1;whiteSpace=wrap;html=1;fontSize=16;fillColor=#ffcccc;strokeColor=#36393d;" vertex="1" parent="1">
          <mxGeometry x="145" y="1849" width="682" height="145" as="geometry" />
        </mxCell>
        <mxCell id="M7fRADg-RS6Ljco3iAjE-48" value="" style="shape=cube;whiteSpace=wrap;html=1;boundedLbl=1;backgroundOutline=1;darkOpacity=0.05;darkOpacity2=0.1;direction=south;size=150;fillColor=#f5f5f5;fontColor=#333333;strokeColor=#666666;" parent="1" vertex="1">
          <mxGeometry x="95" y="80" width="170" height="570" as="geometry" />
        </mxCell>
        <mxCell id="M7fRADg-RS6Ljco3iAjE-17" value="" style="shape=cube;whiteSpace=wrap;html=1;boundedLbl=1;backgroundOutline=1;darkOpacity=0.05;darkOpacity2=0.1;direction=south;size=10;fillColor=#d5e8d4;strokeColor=#82b366;" parent="1" vertex="1">
          <mxGeometry x="947" y="79" width="193" height="131" as="geometry" />
        </mxCell>
        <mxCell id="M7fRADg-RS6Ljco3iAjE-21" value="4x36" style="text;html=1;align=center;verticalAlign=middle;resizable=0;points=[];autosize=1;strokeColor=none;fillColor=none;fontSize=24;" parent="1" vertex="1">
          <mxGeometry x="1012.5" y="45" width="62" height="33" as="geometry" />
        </mxCell>
        <mxCell id="M7fRADg-RS6Ljco3iAjE-22" value="(28, 11, 11)" style="text;html=1;align=center;verticalAlign=middle;resizable=0;points=[];autosize=1;strokeColor=none;fillColor=none;fontSize=24;" parent="1" vertex="1">
          <mxGeometry x="207.5" y="554" width="129" height="33" as="geometry" />
        </mxCell>
        <mxCell id="M7fRADg-RS6Ljco3iAjE-23" value="(56, 7, 7)" style="text;html=1;align=center;verticalAlign=middle;resizable=0;points=[];autosize=1;strokeColor=none;fillColor=none;fontSize=24;" parent="1" vertex="1">
          <mxGeometry x="392" y="479" width="106" height="33" as="geometry" />
        </mxCell>
        <mxCell id="M7fRADg-RS6Ljco3iAjE-26" value="(64, 6, 6)" style="text;html=1;align=center;verticalAlign=middle;resizable=0;points=[];autosize=1;strokeColor=none;fillColor=none;fontSize=24;" parent="1" vertex="1">
          <mxGeometry x="647" y="434" width="106" height="33" as="geometry" />
        </mxCell>
        <mxCell id="NuxIAipGaiC-0c_ZpefP-2" value="" style="shape=cube;whiteSpace=wrap;html=1;boundedLbl=1;backgroundOutline=1;darkOpacity=0.05;darkOpacity2=0.1;direction=south;size=100;fillColor=#ffe6cc;strokeColor=#d79b00;" parent="1" vertex="1">
          <mxGeometry x="225" y="160" width="120" height="370" as="geometry" />
        </mxCell>
        <mxCell id="M7fRADg-RS6Ljco3iAjE-13" value="" style="shape=cube;whiteSpace=wrap;html=1;boundedLbl=1;backgroundOutline=1;darkOpacity=0.05;darkOpacity2=0.1;direction=south;size=100;fillColor=#ffe6cc;strokeColor=#d79b00;" parent="1" vertex="1">
          <mxGeometry x="275" y="160" width="120" height="370" as="geometry" />
        </mxCell>
        <mxCell id="NuxIAipGaiC-0c_ZpefP-4" value="" style="shape=cube;whiteSpace=wrap;html=1;boundedLbl=1;backgroundOutline=1;darkOpacity=0.05;darkOpacity2=0.1;direction=south;size=80;fillColor=#f8cecc;strokeColor=#b85450;" parent="1" vertex="1">
          <mxGeometry x="336.5" y="220" width="113" height="250" as="geometry" />
        </mxCell>
        <mxCell id="M7fRADg-RS6Ljco3iAjE-27" value="" style="shape=cube;whiteSpace=wrap;html=1;boundedLbl=1;backgroundOutline=1;darkOpacity=0.05;darkOpacity2=0.1;direction=south;size=80;fillColor=#ffe6cc;strokeColor=#d79b00;" parent="1" vertex="1">
          <mxGeometry x="395" y="220" width="113" height="250" as="geometry" />
        </mxCell>
        <mxCell id="M7fRADg-RS6Ljco3iAjE-28" value="" style="shape=cube;whiteSpace=wrap;html=1;boundedLbl=1;backgroundOutline=1;darkOpacity=0.05;darkOpacity2=0.1;direction=south;size=80;fillColor=#ffe6cc;strokeColor=#d79b00;" parent="1" vertex="1">
          <mxGeometry x="459" y="220" width="113" height="250" as="geometry" />
        </mxCell>
        <mxCell id="M7fRADg-RS6Ljco3iAjE-32" value="" style="shape=cube;whiteSpace=wrap;html=1;boundedLbl=1;backgroundOutline=1;darkOpacity=0.05;darkOpacity2=0.1;direction=south;size=80;fillColor=#ffe6cc;strokeColor=#d79b00;" parent="1" vertex="1">
          <mxGeometry x="525" y="220" width="113" height="250" as="geometry" />
        </mxCell>
        <mxCell id="M7fRADg-RS6Ljco3iAjE-3" value="" style="shape=cube;whiteSpace=wrap;html=1;boundedLbl=1;backgroundOutline=1;darkOpacity=0.05;darkOpacity2=0.1;direction=south;size=50;fillColor=#f8cecc;strokeColor=#b85450;" parent="1" vertex="1">
          <mxGeometry x="595" y="260" width="90" height="170" as="geometry" />
        </mxCell>
        <mxCell id="M7fRADg-RS6Ljco3iAjE-29" value="" style="shape=cube;whiteSpace=wrap;html=1;boundedLbl=1;backgroundOutline=1;darkOpacity=0.05;darkOpacity2=0.1;direction=south;size=50;fillColor=#ffe6cc;strokeColor=#d79b00;" parent="1" vertex="1">
          <mxGeometry x="655" y="260" width="90" height="170" as="geometry" />
        </mxCell>
        <mxCell id="M7fRADg-RS6Ljco3iAjE-30" value="" style="shape=cube;whiteSpace=wrap;html=1;boundedLbl=1;backgroundOutline=1;darkOpacity=0.05;darkOpacity2=0.1;direction=south;size=50;fillColor=#ffe6cc;strokeColor=#d79b00;" parent="1" vertex="1">
          <mxGeometry x="715" y="260" width="90" height="170" as="geometry" />
        </mxCell>
        <mxCell id="M7fRADg-RS6Ljco3iAjE-33" value="" style="shape=cube;whiteSpace=wrap;html=1;boundedLbl=1;backgroundOutline=1;darkOpacity=0.05;darkOpacity2=0.1;direction=south;size=50;fillColor=#ffe6cc;strokeColor=#d79b00;" parent="1" vertex="1">
          <mxGeometry x="775" y="260" width="90" height="170" as="geometry" />
        </mxCell>
        <mxCell id="NuxIAipGaiC-0c_ZpefP-8" value="" style="shape=cube;whiteSpace=wrap;html=1;boundedLbl=1;backgroundOutline=1;darkOpacity=0.05;darkOpacity2=0.1;direction=south;size=10;fillColor=#e1d5e7;strokeColor=#9673a6;" parent="1" vertex="1">
          <mxGeometry x="1199" y="321" width="230" height="40" as="geometry" />
        </mxCell>
        <mxCell id="M7fRADg-RS6Ljco3iAjE-39" value="(1, 1024)" style="text;html=1;align=center;verticalAlign=middle;resizable=0;points=[];autosize=1;strokeColor=none;fillColor=none;fontSize=24;" parent="1" vertex="1">
          <mxGeometry x="1251" y="364" width="106" height="33" as="geometry" />
        </mxCell>
        <mxCell id="M7fRADg-RS6Ljco3iAjE-40" value="" style="shape=cube;whiteSpace=wrap;html=1;boundedLbl=1;backgroundOutline=1;darkOpacity=0.05;darkOpacity2=0.1;direction=south;size=10;fillColor=#dae8fc;strokeColor=#6c8ebf;" parent="1" vertex="1">
          <mxGeometry x="1200" y="80" width="228" height="130" as="geometry" />
        </mxCell>
        <mxCell id="M7fRADg-RS6Ljco3iAjE-44" value="4x1024" style="text;html=1;align=center;verticalAlign=middle;resizable=0;points=[];autosize=1;strokeColor=none;fillColor=none;fontSize=24;" parent="1" vertex="1">
          <mxGeometry x="1261" y="44" width="89" height="33" as="geometry" />
        </mxCell>
        <mxCell id="M7fRADg-RS6Ljco3iAjE-46" value="" style="endArrow=classic;html=1;rounded=0;strokeWidth=3;dashed=1;" parent="1" edge="1">
          <mxGeometry width="50" height="50" relative="1" as="geometry">
            <mxPoint x="1304.29" y="395" as="sourcePoint" />
            <mxPoint x="1305" y="494" as="targetPoint" />
          </mxGeometry>
        </mxCell>
        <mxCell id="M7fRADg-RS6Ljco3iAjE-47" value="&lt;font style=&quot;font-size: 54px;&quot;&gt;+&lt;/font&gt;" style="ellipse;whiteSpace=wrap;html=1;aspect=fixed;" parent="1" vertex="1">
          <mxGeometry x="1280" y="240" width="50" height="50" as="geometry" />
        </mxCell>
        <mxCell id="M7fRADg-RS6Ljco3iAjE-50" value="&lt;font style=&quot;font-size: 24px;&quot;&gt;Input: (19, 13, 13)&lt;/font&gt;" style="text;html=1;align=center;verticalAlign=middle;resizable=0;points=[];autosize=1;strokeColor=none;fillColor=none;fontSize=24;" parent="1" vertex="1">
          <mxGeometry x="20" y="655" width="200" height="30" as="geometry" />
        </mxCell>
        <mxCell id="M7fRADg-RS6Ljco3iAjE-52" value="" style="shape=cube;whiteSpace=wrap;html=1;boundedLbl=1;backgroundOutline=1;darkOpacity=0.05;darkOpacity2=0.1;direction=south;size=10;fillColor=#e1d5e7;strokeColor=#9673a6;" parent="1" vertex="1">
          <mxGeometry x="1178" y="507.5" width="267" height="40" as="geometry" />
        </mxCell>
        <mxCell id="M7fRADg-RS6Ljco3iAjE-54" value="(1, 5120)" style="text;html=1;align=center;verticalAlign=middle;resizable=0;points=[];autosize=1;strokeColor=none;fillColor=none;fontSize=24;" parent="1" vertex="1">
          <mxGeometry x="1070" y="511" width="106" height="33" as="geometry" />
        </mxCell>
        <mxCell id="M7fRADg-RS6Ljco3iAjE-55" value="" style="shape=cube;whiteSpace=wrap;html=1;boundedLbl=1;backgroundOutline=1;darkOpacity=0.05;darkOpacity2=0.1;direction=south;size=10;fillColor=#dae8fc;strokeColor=#6c8ebf;" parent="1" vertex="1">
          <mxGeometry x="1218" y="620.5" width="192" height="40" as="geometry" />
        </mxCell>
        <mxCell id="M7fRADg-RS6Ljco3iAjE-56" value="(1, 1024)" style="text;html=1;align=center;verticalAlign=middle;resizable=0;points=[];autosize=1;strokeColor=none;fillColor=none;fontSize=24;" parent="1" vertex="1">
          <mxGeometry x="1070" y="624" width="106" height="33" as="geometry" />
        </mxCell>
        <mxCell id="M7fRADg-RS6Ljco3iAjE-57" value="" style="shape=cube;whiteSpace=wrap;html=1;boundedLbl=1;backgroundOutline=1;darkOpacity=0.05;darkOpacity2=0.1;direction=south;size=10;fillColor=#dae8fc;strokeColor=#6c8ebf;" parent="1" vertex="1">
          <mxGeometry x="1257" y="738" width="114" height="40" as="geometry" />
        </mxCell>
        <mxCell id="M7fRADg-RS6Ljco3iAjE-58" value="(1, 256)" style="text;html=1;align=center;verticalAlign=middle;resizable=0;points=[];autosize=1;strokeColor=none;fillColor=none;fontSize=24;" parent="1" vertex="1">
          <mxGeometry x="1078" y="743" width="100" height="30" as="geometry" />
        </mxCell>
        <mxCell id="M7fRADg-RS6Ljco3iAjE-63" value="" style="endArrow=classic;html=1;rounded=0;strokeWidth=3;dashed=1;" parent="1" edge="1">
          <mxGeometry width="50" height="50" relative="1" as="geometry">
            <mxPoint x="1140.0000000000005" y="150" as="sourcePoint" />
            <mxPoint x="1200" y="150" as="targetPoint" />
          </mxGeometry>
        </mxCell>
        <mxCell id="M7fRADg-RS6Ljco3iAjE-72" value="" style="shape=cube;whiteSpace=wrap;html=1;boundedLbl=1;backgroundOutline=1;darkOpacity=0.05;darkOpacity2=0.1;direction=south;size=10;fillColor=#dae8fc;strokeColor=#6c8ebf;" parent="1" vertex="1">
          <mxGeometry x="1257" y="798" width="113" height="40" as="geometry" />
        </mxCell>
        <mxCell id="M7fRADg-RS6Ljco3iAjE-73" value="(1, 256)" style="text;html=1;align=center;verticalAlign=middle;resizable=0;points=[];autosize=1;strokeColor=none;fillColor=none;fontSize=24;" parent="1" vertex="1">
          <mxGeometry x="1078" y="803" width="100" height="30" as="geometry" />
        </mxCell>
        <mxCell id="M7fRADg-RS6Ljco3iAjE-74" value="" style="endArrow=classic;html=1;rounded=0;strokeWidth=3;dashed=1;" parent="1" edge="1">
          <mxGeometry width="50" height="50" relative="1" as="geometry">
            <mxPoint x="1311.0000000000005" y="843" as="sourcePoint" />
            <mxPoint x="1191" y="963" as="targetPoint" />
          </mxGeometry>
        </mxCell>
        <mxCell id="M7fRADg-RS6Ljco3iAjE-75" value="" style="endArrow=classic;html=1;rounded=0;strokeWidth=3;dashed=1;" parent="1" edge="1">
          <mxGeometry width="50" height="50" relative="1" as="geometry">
            <mxPoint x="1311.0000000000005" y="843" as="sourcePoint" />
            <mxPoint x="1431" y="963" as="targetPoint" />
          </mxGeometry>
        </mxCell>
        <mxCell id="M7fRADg-RS6Ljco3iAjE-77" value="" style="shape=cube;whiteSpace=wrap;html=1;boundedLbl=1;backgroundOutline=1;darkOpacity=0.05;darkOpacity2=0.1;direction=south;size=10;fillColor=#dae8fc;strokeColor=#6c8ebf;" parent="1" vertex="1">
          <mxGeometry x="1384" y="973" width="100" height="40" as="geometry" />
        </mxCell>
        <mxCell id="M7fRADg-RS6Ljco3iAjE-78" value="" style="shape=cube;whiteSpace=wrap;html=1;boundedLbl=1;backgroundOutline=1;darkOpacity=0.05;darkOpacity2=0.1;direction=south;size=10;fillColor=#dae8fc;strokeColor=#6c8ebf;" parent="1" vertex="1">
          <mxGeometry x="1130.5" y="1023" width="101" height="40" as="geometry" />
        </mxCell>
        <mxCell id="M7fRADg-RS6Ljco3iAjE-79" value="" style="shape=cube;whiteSpace=wrap;html=1;boundedLbl=1;backgroundOutline=1;darkOpacity=0.05;darkOpacity2=0.1;direction=south;size=10;fillColor=#dae8fc;strokeColor=#6c8ebf;" parent="1" vertex="1">
          <mxGeometry x="1399" y="1023" width="70" height="40" as="geometry" />
        </mxCell>
        <mxCell id="M7fRADg-RS6Ljco3iAjE-80" value="" style="shape=cube;whiteSpace=wrap;html=1;boundedLbl=1;backgroundOutline=1;darkOpacity=0.05;darkOpacity2=0.1;direction=south;size=10;fillColor=#dae8fc;strokeColor=#6c8ebf;" parent="1" vertex="1">
          <mxGeometry x="1146" y="1073" width="70" height="40" as="geometry" />
        </mxCell>
        <mxCell id="M7fRADg-RS6Ljco3iAjE-82" value="(1, 256)" style="text;html=1;align=center;verticalAlign=middle;resizable=0;points=[];autosize=1;strokeColor=none;fillColor=none;fontSize=24;" parent="1" vertex="1">
          <mxGeometry x="1018" y="978" width="100" height="30" as="geometry" />
        </mxCell>
        <mxCell id="M7fRADg-RS6Ljco3iAjE-83" value="(1, 128)" style="text;html=1;align=center;verticalAlign=middle;resizable=0;points=[];autosize=1;strokeColor=none;fillColor=none;fontSize=24;" parent="1" vertex="1">
          <mxGeometry x="1018" y="1028" width="100" height="30" as="geometry" />
        </mxCell>
        <mxCell id="M7fRADg-RS6Ljco3iAjE-84" value="(1, 64)" style="text;html=1;align=center;verticalAlign=middle;resizable=0;points=[];autosize=1;strokeColor=none;fillColor=none;fontSize=24;" parent="1" vertex="1">
          <mxGeometry x="1028" y="1078" width="80" height="30" as="geometry" />
        </mxCell>
        <mxCell id="M7fRADg-RS6Ljco3iAjE-85" value="(1, 128)" style="text;html=1;align=center;verticalAlign=middle;resizable=0;points=[];autosize=1;strokeColor=none;fillColor=none;fontSize=24;" parent="1" vertex="1">
          <mxGeometry x="1484" y="978" width="100" height="30" as="geometry" />
        </mxCell>
        <mxCell id="M7fRADg-RS6Ljco3iAjE-86" value="(1, 64)" style="text;html=1;align=center;verticalAlign=middle;resizable=0;points=[];autosize=1;strokeColor=none;fillColor=none;fontSize=24;" parent="1" vertex="1">
          <mxGeometry x="1494" y="1028" width="80" height="30" as="geometry" />
        </mxCell>
        <mxCell id="M7fRADg-RS6Ljco3iAjE-87" value="" style="shape=cube;whiteSpace=wrap;html=1;boundedLbl=1;backgroundOutline=1;darkOpacity=0.05;darkOpacity2=0.1;direction=south;size=10;fillColor=#dae8fc;strokeColor=#6c8ebf;" parent="1" vertex="1">
          <mxGeometry x="1419" y="1073" width="30" height="40" as="geometry" />
        </mxCell>
        <mxCell id="M7fRADg-RS6Ljco3iAjE-88" value="" style="shape=cube;whiteSpace=wrap;html=1;boundedLbl=1;backgroundOutline=1;darkOpacity=0.05;darkOpacity2=0.1;direction=south;size=10;fillColor=#dae8fc;strokeColor=#6c8ebf;" parent="1" vertex="1">
          <mxGeometry x="1156" y="1123" width="50" height="40" as="geometry" />
        </mxCell>
        <mxCell id="M7fRADg-RS6Ljco3iAjE-89" value="(1, 25)" style="text;html=1;align=center;verticalAlign=middle;resizable=0;points=[];autosize=1;strokeColor=none;fillColor=none;fontSize=24;" parent="1" vertex="1">
          <mxGeometry x="1028" y="1128" width="80" height="30" as="geometry" />
        </mxCell>
        <mxCell id="M7fRADg-RS6Ljco3iAjE-90" value="(1, 1)" style="text;html=1;align=center;verticalAlign=middle;resizable=0;points=[];autosize=1;strokeColor=none;fillColor=none;fontSize=24;" parent="1" vertex="1">
          <mxGeometry x="1499" y="1073" width="70" height="30" as="geometry" />
        </mxCell>
        <mxCell id="M7fRADg-RS6Ljco3iAjE-91" value="Action" style="text;html=1;align=center;verticalAlign=middle;resizable=0;points=[];autosize=1;strokeColor=none;fillColor=none;fontSize=24;" parent="1" vertex="1">
          <mxGeometry x="1142.5" y="1173" width="77" height="33" as="geometry" />
        </mxCell>
        <mxCell id="M7fRADg-RS6Ljco3iAjE-94" value="Value" style="text;html=1;align=center;verticalAlign=middle;resizable=0;points=[];autosize=1;strokeColor=none;fillColor=none;fontSize=24;" parent="1" vertex="1">
          <mxGeometry x="1399" y="1125" width="70" height="33" as="geometry" />
        </mxCell>
        <mxCell id="M7fRADg-RS6Ljco3iAjE-96" value="" style="shape=cube;whiteSpace=wrap;html=1;boundedLbl=1;backgroundOutline=1;darkOpacity=0.05;darkOpacity2=0.1;direction=south;size=20;fillColor=#ffe6cc;strokeColor=#d79b00;" parent="1" vertex="1">
          <mxGeometry x="302" y="738" width="70" height="60" as="geometry" />
        </mxCell>
        <mxCell id="M7fRADg-RS6Ljco3iAjE-97" value="" style="shape=cube;whiteSpace=wrap;html=1;boundedLbl=1;backgroundOutline=1;darkOpacity=0.05;darkOpacity2=0.1;direction=south;size=20;fillColor=#f8cecc;strokeColor=#b85450;" parent="1" vertex="1">
          <mxGeometry x="302" y="802" width="70" height="60" as="geometry" />
        </mxCell>
        <mxCell id="M7fRADg-RS6Ljco3iAjE-98" value="" style="shape=cube;whiteSpace=wrap;html=1;boundedLbl=1;backgroundOutline=1;darkOpacity=0.05;darkOpacity2=0.1;direction=south;size=20;fillColor=#d5e8d4;strokeColor=#82b366;" parent="1" vertex="1">
          <mxGeometry x="302" y="865.5" width="70" height="60" as="geometry" />
        </mxCell>
        <mxCell id="M7fRADg-RS6Ljco3iAjE-99" value="" style="shape=cube;whiteSpace=wrap;html=1;boundedLbl=1;backgroundOutline=1;darkOpacity=0.05;darkOpacity2=0.1;direction=south;size=20;fillColor=#dae8fc;strokeColor=#6c8ebf;" parent="1" vertex="1">
          <mxGeometry x="302" y="929" width="70" height="60" as="geometry" />
        </mxCell>
        <mxCell id="M7fRADg-RS6Ljco3iAjE-100" value="" style="shape=cube;whiteSpace=wrap;html=1;boundedLbl=1;backgroundOutline=1;darkOpacity=0.05;darkOpacity2=0.1;direction=south;size=20;fillColor=#e1d5e7;strokeColor=#9673a6;" parent="1" vertex="1">
          <mxGeometry x="302" y="992" width="70" height="60" as="geometry" />
        </mxCell>
        <mxCell id="M7fRADg-RS6Ljco3iAjE-101" value="&lt;b&gt;&lt;font style=&quot;font-size: 26px;&quot;&gt;Conv + ReLU + Dropout + Batch Norm&amp;nbsp;&lt;/font&gt;&lt;/b&gt;" style="text;html=1;align=center;verticalAlign=middle;resizable=0;points=[];autosize=1;strokeColor=none;fillColor=none;fontSize=24;" parent="1" vertex="1">
          <mxGeometry x="390" y="751.5" width="487" height="33" as="geometry" />
        </mxCell>
        <mxCell id="M7fRADg-RS6Ljco3iAjE-102" value="&lt;b&gt;Max Pooling&lt;/b&gt;" style="text;html=1;align=center;verticalAlign=middle;resizable=0;points=[];autosize=1;strokeColor=none;fillColor=none;fontSize=26;" parent="1" vertex="1">
          <mxGeometry x="390.5" y="808" width="163" height="35" as="geometry" />
        </mxCell>
        <mxCell id="M7fRADg-RS6Ljco3iAjE-103" value="Embedding + ReLU" style="text;html=1;align=center;verticalAlign=middle;resizable=0;points=[];autosize=1;strokeColor=none;fillColor=none;fontSize=26;fontStyle=1" parent="1" vertex="1">
          <mxGeometry x="390" y="874" width="249" height="35" as="geometry" />
        </mxCell>
        <mxCell id="M7fRADg-RS6Ljco3iAjE-104" value="Fully Connected + ReLU" style="text;html=1;align=center;verticalAlign=middle;resizable=0;points=[];autosize=1;strokeColor=none;fillColor=none;fontSize=26;fontStyle=1" parent="1" vertex="1">
          <mxGeometry x="390.5" y="940.25" width="310" height="35" as="geometry" />
        </mxCell>
        <mxCell id="M7fRADg-RS6Ljco3iAjE-105" value="Flatten" style="text;html=1;align=center;verticalAlign=middle;resizable=0;points=[];autosize=1;strokeColor=none;fillColor=none;fontSize=26;fontStyle=1" parent="1" vertex="1">
          <mxGeometry x="390.5" y="1006" width="95" height="35" as="geometry" />
        </mxCell>
        <mxCell id="M7fRADg-RS6Ljco3iAjE-106" value="&lt;font style=&quot;font-size: 54px;&quot;&gt;+&lt;/font&gt;" style="ellipse;whiteSpace=wrap;html=1;aspect=fixed;" parent="1" vertex="1">
          <mxGeometry x="315" y="677" width="50" height="50" as="geometry" />
        </mxCell>
        <mxCell id="M7fRADg-RS6Ljco3iAjE-107" value="Concatenation" style="text;html=1;align=center;verticalAlign=middle;resizable=0;points=[];autosize=1;strokeColor=none;fillColor=none;fontSize=26;fontStyle=1" parent="1" vertex="1">
          <mxGeometry x="390.5" y="682" width="191" height="35" as="geometry" />
        </mxCell>
        <mxCell id="M7fRADg-RS6Ljco3iAjE-110" value="" style="endArrow=none;dashed=1;html=1;dashPattern=1 3;strokeWidth=2;rounded=0;fontSize=26;" parent="1" edge="1">
          <mxGeometry width="50" height="50" relative="1" as="geometry">
            <mxPoint x="946" y="148" as="sourcePoint" />
            <mxPoint x="1128" y="148" as="targetPoint" />
          </mxGeometry>
        </mxCell>
        <mxCell id="M7fRADg-RS6Ljco3iAjE-111" value="" style="endArrow=none;dashed=1;html=1;dashPattern=1 3;strokeWidth=2;rounded=0;fontSize=26;" parent="1" edge="1">
          <mxGeometry width="50" height="50" relative="1" as="geometry">
            <mxPoint x="946" y="177" as="sourcePoint" />
            <mxPoint x="1127" y="177" as="targetPoint" />
          </mxGeometry>
        </mxCell>
        <mxCell id="M7fRADg-RS6Ljco3iAjE-112" value="" style="endArrow=none;dashed=1;html=1;dashPattern=1 3;strokeWidth=2;rounded=0;fontSize=26;" parent="1" edge="1">
          <mxGeometry width="50" height="50" relative="1" as="geometry">
            <mxPoint x="946" y="117" as="sourcePoint" />
            <mxPoint x="1128" y="117" as="targetPoint" />
          </mxGeometry>
        </mxCell>
        <mxCell id="M7fRADg-RS6Ljco3iAjE-113" value="" style="endArrow=none;dashed=1;html=1;dashPattern=1 3;strokeWidth=2;rounded=0;fontSize=26;entryX=0.229;entryY=0.043;entryDx=0;entryDy=0;entryPerimeter=0;exitX=0.229;exitY=1.007;exitDx=0;exitDy=0;exitPerimeter=0;" parent="1" edge="1">
          <mxGeometry width="50" height="50" relative="1" as="geometry">
            <mxPoint x="1200" y="145.22900000000024" as="sourcePoint" />
            <mxPoint x="1421.7199999999993" y="145.22900000000024" as="targetPoint" />
          </mxGeometry>
        </mxCell>
        <mxCell id="M7fRADg-RS6Ljco3iAjE-114" value="" style="endArrow=none;dashed=1;html=1;dashPattern=1 3;strokeWidth=2;rounded=0;fontSize=26;entryX=0.229;entryY=0.043;entryDx=0;entryDy=0;entryPerimeter=0;exitX=0.229;exitY=1.007;exitDx=0;exitDy=0;exitPerimeter=0;" parent="1" edge="1">
          <mxGeometry width="50" height="50" relative="1" as="geometry">
            <mxPoint x="1200" y="174.22900000000024" as="sourcePoint" />
            <mxPoint x="1421.7199999999993" y="174.22900000000024" as="targetPoint" />
          </mxGeometry>
        </mxCell>
        <mxCell id="M7fRADg-RS6Ljco3iAjE-115" value="" style="endArrow=none;dashed=1;html=1;dashPattern=1 3;strokeWidth=2;rounded=0;fontSize=26;entryX=0.229;entryY=0.043;entryDx=0;entryDy=0;entryPerimeter=0;exitX=0.229;exitY=1.007;exitDx=0;exitDy=0;exitPerimeter=0;" parent="1" edge="1">
          <mxGeometry width="50" height="50" relative="1" as="geometry">
            <mxPoint x="1200" y="114.22900000000025" as="sourcePoint" />
            <mxPoint x="1421.7199999999993" y="114.22900000000025" as="targetPoint" />
          </mxGeometry>
        </mxCell>
        <mxCell id="M7fRADg-RS6Ljco3iAjE-116" value="" style="shape=cube;whiteSpace=wrap;html=1;boundedLbl=1;backgroundOutline=1;darkOpacity=0.05;darkOpacity2=0.1;direction=south;size=10;fillColor=#dae8fc;strokeColor=#6c8ebf;" parent="1" vertex="1">
          <mxGeometry x="1197" y="564" width="229" height="40" as="geometry" />
        </mxCell>
        <mxCell id="M7fRADg-RS6Ljco3iAjE-117" value="(1, 2048)" style="text;html=1;align=center;verticalAlign=middle;resizable=0;points=[];autosize=1;strokeColor=none;fillColor=none;fontSize=24;" parent="1" vertex="1">
          <mxGeometry x="1068" y="567.5" width="106" height="33" as="geometry" />
        </mxCell>
        <mxCell id="M7fRADg-RS6Ljco3iAjE-118" value="" style="shape=cube;whiteSpace=wrap;html=1;boundedLbl=1;backgroundOutline=1;darkOpacity=0.05;darkOpacity2=0.1;direction=south;size=10;fillColor=#dae8fc;strokeColor=#6c8ebf;" parent="1" vertex="1">
          <mxGeometry x="1244" y="679.5" width="140" height="40" as="geometry" />
        </mxCell>
        <mxCell id="M7fRADg-RS6Ljco3iAjE-119" value="(1, 512)" style="text;html=1;align=center;verticalAlign=middle;resizable=0;points=[];autosize=1;strokeColor=none;fillColor=none;fontSize=24;" parent="1" vertex="1">
          <mxGeometry x="1081" y="683" width="93" height="33" as="geometry" />
        </mxCell>
        <mxCell id="M7fRADg-RS6Ljco3iAjE-120" value="" style="shape=cube;whiteSpace=wrap;html=1;boundedLbl=1;backgroundOutline=1;darkOpacity=0.05;darkOpacity2=0.1;direction=south;size=10;fillColor=#dae8fc;strokeColor=#6c8ebf;" parent="1" vertex="1">
          <mxGeometry x="1124.5" y="973" width="113" height="40" as="geometry" />
        </mxCell>
        <mxCell id="PGIYKK-JV2RwreKTZmfG-1" value="" style="shape=cube;whiteSpace=wrap;html=1;boundedLbl=1;backgroundOutline=1;darkOpacity=0.05;darkOpacity2=0.1;direction=south;size=50;fillColor=#bac8d3;strokeColor=#23445d;" vertex="1" parent="1">
          <mxGeometry x="957" y="260" width="141" height="170" as="geometry" />
        </mxCell>
        <mxCell id="PGIYKK-JV2RwreKTZmfG-2" value="" style="endArrow=classic;html=1;rounded=0;strokeWidth=3;dashed=1;" edge="1" parent="1">
          <mxGeometry width="50" height="50" relative="1" as="geometry">
            <mxPoint x="851.0000000000005" y="350" as="sourcePoint" />
            <mxPoint x="955" y="350" as="targetPoint" />
          </mxGeometry>
        </mxCell>
        <mxCell id="PGIYKK-JV2RwreKTZmfG-3" value="&lt;font style=&quot;font-size: 24px;&quot;&gt;(64, 6, 6)&lt;/font&gt;" style="text;html=1;align=center;verticalAlign=middle;resizable=0;points=[];autosize=1;strokeColor=none;fillColor=none;" vertex="1" parent="1">
          <mxGeometry x="951" y="437" width="106" height="22" as="geometry" />
        </mxCell>
        <mxCell id="PGIYKK-JV2RwreKTZmfG-53" style="edgeStyle=orthogonalEdgeStyle;rounded=0;orthogonalLoop=1;jettySize=auto;html=1;entryX=0;entryY=0.5;entryDx=0;entryDy=0;fontSize=24;" edge="1" parent="1" target="PGIYKK-JV2RwreKTZmfG-51">
          <mxGeometry relative="1" as="geometry">
            <mxPoint x="-120" y="1749" as="sourcePoint" />
            <Array as="points">
              <mxPoint x="-94" y="1749" />
            </Array>
          </mxGeometry>
        </mxCell>
        <mxCell id="PGIYKK-JV2RwreKTZmfG-65" style="edgeStyle=orthogonalEdgeStyle;rounded=0;orthogonalLoop=1;jettySize=auto;html=1;entryX=0;entryY=0.5;entryDx=0;entryDy=0;fontSize=24;" edge="1" parent="1" target="PGIYKK-JV2RwreKTZmfG-9">
          <mxGeometry relative="1" as="geometry">
            <mxPoint x="-124" y="1496" as="sourcePoint" />
            <Array as="points">
              <mxPoint x="-82" y="1496" />
              <mxPoint x="-44" y="1496" />
            </Array>
          </mxGeometry>
        </mxCell>
        <mxCell id="PGIYKK-JV2RwreKTZmfG-9" value="Conv2D" style="rounded=1;whiteSpace=wrap;html=1;fontSize=24;fillColor=#ffe6cc;strokeColor=#d79b00;" vertex="1" parent="1">
          <mxGeometry x="-7" y="1463" width="150" height="65" as="geometry" />
        </mxCell>
        <mxCell id="PGIYKK-JV2RwreKTZmfG-10" value="Conv2D" style="rounded=1;whiteSpace=wrap;html=1;fontSize=24;fillColor=#ffe6cc;strokeColor=#d79b00;" vertex="1" parent="1">
          <mxGeometry x="183" y="1463" width="150" height="65" as="geometry" />
        </mxCell>
        <mxCell id="PGIYKK-JV2RwreKTZmfG-11" value="Conv2D" style="rounded=1;whiteSpace=wrap;html=1;fontSize=24;fillColor=#ffe6cc;strokeColor=#d79b00;" vertex="1" parent="1">
          <mxGeometry x="373" y="1463" width="150" height="65" as="geometry" />
        </mxCell>
        <mxCell id="PGIYKK-JV2RwreKTZmfG-12" value="MaxPool2D" style="rounded=1;whiteSpace=wrap;html=1;fontSize=24;fillColor=#f8cecc;strokeColor=#b85450;" vertex="1" parent="1">
          <mxGeometry x="563" y="1463" width="150" height="65" as="geometry" />
        </mxCell>
        <mxCell id="PGIYKK-JV2RwreKTZmfG-13" value="Conv2D" style="rounded=1;whiteSpace=wrap;html=1;fontSize=24;fillColor=#ffe6cc;strokeColor=#d79b00;" vertex="1" parent="1">
          <mxGeometry x="-7" y="1569" width="150" height="65" as="geometry" />
        </mxCell>
        <mxCell id="PGIYKK-JV2RwreKTZmfG-14" value="Conv2D" style="rounded=1;whiteSpace=wrap;html=1;fontSize=24;fillColor=#ffe6cc;strokeColor=#d79b00;" vertex="1" parent="1">
          <mxGeometry x="185" y="1569" width="150" height="65" as="geometry" />
        </mxCell>
        <mxCell id="PGIYKK-JV2RwreKTZmfG-15" value="Conv2D" style="rounded=1;whiteSpace=wrap;html=1;fontSize=24;fillColor=#ffe6cc;strokeColor=#d79b00;" vertex="1" parent="1">
          <mxGeometry x="377" y="1569" width="150" height="65" as="geometry" />
        </mxCell>
        <mxCell id="PGIYKK-JV2RwreKTZmfG-23" value="" style="endArrow=classic;html=1;rounded=0;fontSize=24;entryX=0;entryY=0.5;entryDx=0;entryDy=0;exitX=1;exitY=0.5;exitDx=0;exitDy=0;" edge="1" parent="1" source="PGIYKK-JV2RwreKTZmfG-9" target="PGIYKK-JV2RwreKTZmfG-10">
          <mxGeometry width="50" height="50" relative="1" as="geometry">
            <mxPoint x="573" y="1947" as="sourcePoint" />
            <mxPoint x="1078" y="1611" as="targetPoint" />
          </mxGeometry>
        </mxCell>
        <mxCell id="PGIYKK-JV2RwreKTZmfG-25" value="" style="endArrow=classic;html=1;rounded=0;fontSize=24;entryX=0;entryY=0.5;entryDx=0;entryDy=0;exitX=1;exitY=0.5;exitDx=0;exitDy=0;" edge="1" parent="1" source="PGIYKK-JV2RwreKTZmfG-10" target="PGIYKK-JV2RwreKTZmfG-11">
          <mxGeometry width="50" height="50" relative="1" as="geometry">
            <mxPoint x="331.5" y="1422" as="sourcePoint" />
            <mxPoint x="371.5" y="1422" as="targetPoint" />
          </mxGeometry>
        </mxCell>
        <mxCell id="PGIYKK-JV2RwreKTZmfG-26" value="" style="endArrow=classic;html=1;rounded=0;fontSize=24;entryX=0;entryY=0.5;entryDx=0;entryDy=0;exitX=1;exitY=0.5;exitDx=0;exitDy=0;" edge="1" parent="1" source="PGIYKK-JV2RwreKTZmfG-11" target="PGIYKK-JV2RwreKTZmfG-12">
          <mxGeometry width="50" height="50" relative="1" as="geometry">
            <mxPoint x="306" y="1415" as="sourcePoint" />
            <mxPoint x="346" y="1415" as="targetPoint" />
          </mxGeometry>
        </mxCell>
        <mxCell id="PGIYKK-JV2RwreKTZmfG-28" value="" style="endArrow=classic;html=1;rounded=0;fontSize=24;entryX=0;entryY=0.5;entryDx=0;entryDy=0;exitX=1;exitY=0.5;exitDx=0;exitDy=0;" edge="1" parent="1" source="PGIYKK-JV2RwreKTZmfG-13" target="PGIYKK-JV2RwreKTZmfG-14">
          <mxGeometry width="50" height="50" relative="1" as="geometry">
            <mxPoint x="-436" y="1541" as="sourcePoint" />
            <mxPoint x="-396" y="1541" as="targetPoint" />
          </mxGeometry>
        </mxCell>
        <mxCell id="PGIYKK-JV2RwreKTZmfG-35" value="" style="endArrow=classic;html=1;rounded=0;fontSize=24;entryX=0;entryY=0.5;entryDx=0;entryDy=0;exitX=1;exitY=0.5;exitDx=0;exitDy=0;" edge="1" parent="1" source="PGIYKK-JV2RwreKTZmfG-14" target="PGIYKK-JV2RwreKTZmfG-15">
          <mxGeometry width="50" height="50" relative="1" as="geometry">
            <mxPoint x="-416" y="1561" as="sourcePoint" />
            <mxPoint x="-376" y="1561" as="targetPoint" />
          </mxGeometry>
        </mxCell>
        <mxCell id="PGIYKK-JV2RwreKTZmfG-56" style="edgeStyle=orthogonalEdgeStyle;rounded=0;orthogonalLoop=1;jettySize=auto;html=1;fontSize=24;" edge="1" parent="1" source="PGIYKK-JV2RwreKTZmfG-36" target="PGIYKK-JV2RwreKTZmfG-55">
          <mxGeometry relative="1" as="geometry" />
        </mxCell>
        <mxCell id="PGIYKK-JV2RwreKTZmfG-36" value="LSTM" style="rounded=1;whiteSpace=wrap;html=1;fontSize=24;fillColor=#e1d5e7;strokeColor=#9673a6;" vertex="1" parent="1">
          <mxGeometry x="816" y="1551.5" width="212" height="100" as="geometry" />
        </mxCell>
        <mxCell id="PGIYKK-JV2RwreKTZmfG-39" value="&lt;font style=&quot;font-size: 47px;&quot;&gt;+&lt;/font&gt;" style="ellipse;whiteSpace=wrap;html=1;aspect=fixed;fontSize=24;" vertex="1" parent="1">
          <mxGeometry x="756" y="1587" width="29" height="29" as="geometry" />
        </mxCell>
        <mxCell id="PGIYKK-JV2RwreKTZmfG-40" value="" style="endArrow=classic;html=1;rounded=0;fontSize=47;entryX=0;entryY=0.5;entryDx=0;entryDy=0;exitX=1;exitY=0.5;exitDx=0;exitDy=0;" edge="1" parent="1" source="PGIYKK-JV2RwreKTZmfG-39" target="PGIYKK-JV2RwreKTZmfG-36">
          <mxGeometry width="50" height="50" relative="1" as="geometry">
            <mxPoint x="618" y="1621.5" as="sourcePoint" />
            <mxPoint x="668" y="1571.5" as="targetPoint" />
          </mxGeometry>
        </mxCell>
        <mxCell id="PGIYKK-JV2RwreKTZmfG-42" value="" style="curved=1;endArrow=classic;html=1;rounded=0;fontSize=47;entryX=0;entryY=0.5;entryDx=0;entryDy=0;exitX=1;exitY=0.5;exitDx=0;exitDy=0;" edge="1" parent="1" source="PGIYKK-JV2RwreKTZmfG-12" target="PGIYKK-JV2RwreKTZmfG-13">
          <mxGeometry width="50" height="50" relative="1" as="geometry">
            <mxPoint x="603" y="1655" as="sourcePoint" />
            <mxPoint x="653" y="1605" as="targetPoint" />
            <Array as="points">
              <mxPoint x="797" y="1571" />
              <mxPoint x="-79" y="1529" />
            </Array>
          </mxGeometry>
        </mxCell>
        <mxCell id="PGIYKK-JV2RwreKTZmfG-52" style="edgeStyle=orthogonalEdgeStyle;rounded=0;orthogonalLoop=1;jettySize=auto;html=1;exitX=1;exitY=0.5;exitDx=0;exitDy=0;entryX=0;entryY=0.5;entryDx=0;entryDy=0;fontSize=24;" edge="1" parent="1" source="PGIYKK-JV2RwreKTZmfG-43" target="PGIYKK-JV2RwreKTZmfG-39">
          <mxGeometry relative="1" as="geometry" />
        </mxCell>
        <mxCell id="PGIYKK-JV2RwreKTZmfG-43" value="MaxPool2D" style="rounded=1;whiteSpace=wrap;html=1;fontSize=24;fillColor=#f8cecc;strokeColor=#b85450;" vertex="1" parent="1">
          <mxGeometry x="567" y="1569" width="150" height="65" as="geometry" />
        </mxCell>
        <mxCell id="PGIYKK-JV2RwreKTZmfG-44" value="" style="endArrow=classic;html=1;rounded=0;fontSize=24;entryX=0;entryY=0.5;entryDx=0;entryDy=0;exitX=1;exitY=0.5;exitDx=0;exitDy=0;" edge="1" parent="1" target="PGIYKK-JV2RwreKTZmfG-43" source="PGIYKK-JV2RwreKTZmfG-15">
          <mxGeometry width="50" height="50" relative="1" as="geometry">
            <mxPoint x="543" y="1622" as="sourcePoint" />
            <mxPoint x="350" y="1521" as="targetPoint" />
          </mxGeometry>
        </mxCell>
        <mxCell id="PGIYKK-JV2RwreKTZmfG-45" value="" style="curved=1;endArrow=classic;html=1;rounded=0;fontSize=47;entryX=0;entryY=0.5;entryDx=0;entryDy=0;exitX=1;exitY=0.5;exitDx=0;exitDy=0;" edge="1" parent="1" target="PGIYKK-JV2RwreKTZmfG-20">
          <mxGeometry width="50" height="50" relative="1" as="geometry">
            <mxPoint x="720.9999999999995" y="1665" as="sourcePoint" />
            <mxPoint x="685" y="1473.5" as="targetPoint" />
            <Array as="points">
              <mxPoint x="814" y="1591" />
              <mxPoint x="-50" y="1641" />
            </Array>
          </mxGeometry>
        </mxCell>
        <mxCell id="PGIYKK-JV2RwreKTZmfG-57" style="edgeStyle=orthogonalEdgeStyle;rounded=0;orthogonalLoop=1;jettySize=auto;html=1;entryX=0;entryY=0.5;entryDx=0;entryDy=0;fontSize=24;" edge="1" parent="1" source="PGIYKK-JV2RwreKTZmfG-51" target="PGIYKK-JV2RwreKTZmfG-55">
          <mxGeometry relative="1" as="geometry" />
        </mxCell>
        <mxCell id="PGIYKK-JV2RwreKTZmfG-51" value="Embedding" style="rounded=1;whiteSpace=wrap;html=1;fontSize=24;fillColor=#d5e8d4;strokeColor=#82b366;" vertex="1" parent="1">
          <mxGeometry x="250" y="1695" width="223" height="108" as="geometry" />
        </mxCell>
        <mxCell id="PGIYKK-JV2RwreKTZmfG-82" style="edgeStyle=orthogonalEdgeStyle;rounded=0;orthogonalLoop=1;jettySize=auto;html=1;exitX=0.5;exitY=1;exitDx=0;exitDy=0;fontSize=24;" edge="1" parent="1" source="PGIYKK-JV2RwreKTZmfG-55" target="PGIYKK-JV2RwreKTZmfG-58">
          <mxGeometry relative="1" as="geometry" />
        </mxCell>
        <mxCell id="PGIYKK-JV2RwreKTZmfG-55" value="&lt;font style=&quot;font-size: 47px;&quot;&gt;+&lt;/font&gt;" style="ellipse;whiteSpace=wrap;html=1;aspect=fixed;fontSize=24;" vertex="1" parent="1">
          <mxGeometry x="907.5" y="1734.5" width="29" height="29" as="geometry" />
        </mxCell>
        <mxCell id="PGIYKK-JV2RwreKTZmfG-83" style="edgeStyle=orthogonalEdgeStyle;rounded=0;orthogonalLoop=1;jettySize=auto;html=1;exitX=0.5;exitY=1;exitDx=0;exitDy=0;fontSize=24;" edge="1" parent="1" source="PGIYKK-JV2RwreKTZmfG-58" target="PGIYKK-JV2RwreKTZmfG-59">
          <mxGeometry relative="1" as="geometry" />
        </mxCell>
        <mxCell id="PGIYKK-JV2RwreKTZmfG-58" value="Linear" style="rounded=1;whiteSpace=wrap;html=1;fontSize=24;fillColor=#dae8fc;strokeColor=#6c8ebf;" vertex="1" parent="1">
          <mxGeometry x="854" y="1834" width="136" height="75" as="geometry" />
        </mxCell>
        <mxCell id="PGIYKK-JV2RwreKTZmfG-87" style="edgeStyle=orthogonalEdgeStyle;rounded=0;orthogonalLoop=1;jettySize=auto;html=1;exitX=0;exitY=0.75;exitDx=0;exitDy=0;entryX=1;entryY=0.5;entryDx=0;entryDy=0;fontSize=24;" edge="1" parent="1" source="PGIYKK-JV2RwreKTZmfG-59" target="PGIYKK-JV2RwreKTZmfG-75">
          <mxGeometry relative="1" as="geometry">
            <Array as="points">
              <mxPoint x="840" y="2017" />
              <mxPoint x="840" y="2059" />
            </Array>
          </mxGeometry>
        </mxCell>
        <mxCell id="PGIYKK-JV2RwreKTZmfG-88" style="edgeStyle=orthogonalEdgeStyle;rounded=0;orthogonalLoop=1;jettySize=auto;html=1;exitX=0;exitY=0.25;exitDx=0;exitDy=0;entryX=1;entryY=0.5;entryDx=0;entryDy=0;fontSize=24;" edge="1" parent="1" source="PGIYKK-JV2RwreKTZmfG-59" target="PGIYKK-JV2RwreKTZmfG-74">
          <mxGeometry relative="1" as="geometry">
            <Array as="points">
              <mxPoint x="839" y="1980" />
              <mxPoint x="839" y="1939" />
            </Array>
          </mxGeometry>
        </mxCell>
        <mxCell id="PGIYKK-JV2RwreKTZmfG-59" value="Linear" style="rounded=1;whiteSpace=wrap;html=1;fontSize=24;fillColor=#dae8fc;strokeColor=#6c8ebf;" vertex="1" parent="1">
          <mxGeometry x="854" y="1961" width="136" height="75" as="geometry" />
        </mxCell>
        <mxCell id="PGIYKK-JV2RwreKTZmfG-89" style="edgeStyle=orthogonalEdgeStyle;rounded=0;orthogonalLoop=1;jettySize=auto;html=1;exitX=0;exitY=0.5;exitDx=0;exitDy=0;entryX=1;entryY=0.5;entryDx=0;entryDy=0;fontSize=24;" edge="1" parent="1" source="PGIYKK-JV2RwreKTZmfG-74" target="PGIYKK-JV2RwreKTZmfG-76">
          <mxGeometry relative="1" as="geometry" />
        </mxCell>
        <mxCell id="PGIYKK-JV2RwreKTZmfG-74" value="Linear" style="rounded=1;whiteSpace=wrap;html=1;fontSize=24;fillColor=#dae8fc;strokeColor=#6c8ebf;" vertex="1" parent="1">
          <mxGeometry x="669" y="1901" width="136" height="75" as="geometry" />
        </mxCell>
        <mxCell id="PGIYKK-JV2RwreKTZmfG-90" style="edgeStyle=orthogonalEdgeStyle;rounded=0;orthogonalLoop=1;jettySize=auto;html=1;exitX=0;exitY=0.5;exitDx=0;exitDy=0;entryX=1;entryY=0.5;entryDx=0;entryDy=0;fontSize=24;" edge="1" parent="1" source="PGIYKK-JV2RwreKTZmfG-75" target="PGIYKK-JV2RwreKTZmfG-77">
          <mxGeometry relative="1" as="geometry" />
        </mxCell>
        <mxCell id="PGIYKK-JV2RwreKTZmfG-75" value="Linear" style="rounded=1;whiteSpace=wrap;html=1;fontSize=24;fillColor=#dae8fc;strokeColor=#6c8ebf;" vertex="1" parent="1">
          <mxGeometry x="669" y="2021" width="136" height="75" as="geometry" />
        </mxCell>
        <mxCell id="PGIYKK-JV2RwreKTZmfG-92" style="edgeStyle=orthogonalEdgeStyle;rounded=0;orthogonalLoop=1;jettySize=auto;html=1;exitX=0;exitY=0.5;exitDx=0;exitDy=0;entryX=1;entryY=0.5;entryDx=0;entryDy=0;fontSize=24;" edge="1" parent="1" source="PGIYKK-JV2RwreKTZmfG-76" target="PGIYKK-JV2RwreKTZmfG-78">
          <mxGeometry relative="1" as="geometry" />
        </mxCell>
        <mxCell id="PGIYKK-JV2RwreKTZmfG-76" value="Linear" style="rounded=1;whiteSpace=wrap;html=1;fontSize=24;fillColor=#dae8fc;strokeColor=#6c8ebf;" vertex="1" parent="1">
          <mxGeometry x="502" y="1901" width="136" height="75" as="geometry" />
        </mxCell>
        <mxCell id="PGIYKK-JV2RwreKTZmfG-91" style="edgeStyle=orthogonalEdgeStyle;rounded=0;orthogonalLoop=1;jettySize=auto;html=1;exitX=0;exitY=0.5;exitDx=0;exitDy=0;entryX=1;entryY=0.5;entryDx=0;entryDy=0;fontSize=24;" edge="1" parent="1" source="PGIYKK-JV2RwreKTZmfG-77" target="PGIYKK-JV2RwreKTZmfG-79">
          <mxGeometry relative="1" as="geometry" />
        </mxCell>
        <mxCell id="PGIYKK-JV2RwreKTZmfG-77" value="Linear" style="rounded=1;whiteSpace=wrap;html=1;fontSize=24;fillColor=#dae8fc;strokeColor=#6c8ebf;" vertex="1" parent="1">
          <mxGeometry x="502" y="2021" width="136" height="75" as="geometry" />
        </mxCell>
        <mxCell id="PGIYKK-JV2RwreKTZmfG-93" style="edgeStyle=orthogonalEdgeStyle;rounded=0;orthogonalLoop=1;jettySize=auto;html=1;exitX=0;exitY=0.5;exitDx=0;exitDy=0;entryX=1;entryY=0.5;entryDx=0;entryDy=0;fontSize=24;" edge="1" parent="1" source="PGIYKK-JV2RwreKTZmfG-78" target="PGIYKK-JV2RwreKTZmfG-80">
          <mxGeometry relative="1" as="geometry" />
        </mxCell>
        <mxCell id="PGIYKK-JV2RwreKTZmfG-78" value="Linear" style="rounded=1;whiteSpace=wrap;html=1;fontSize=24;fillColor=#dae8fc;strokeColor=#6c8ebf;" vertex="1" parent="1">
          <mxGeometry x="333" y="1901" width="136" height="75" as="geometry" />
        </mxCell>
        <mxCell id="PGIYKK-JV2RwreKTZmfG-94" style="edgeStyle=orthogonalEdgeStyle;rounded=0;orthogonalLoop=1;jettySize=auto;html=1;exitX=0;exitY=0.5;exitDx=0;exitDy=0;entryX=1;entryY=0.5;entryDx=0;entryDy=0;fontSize=24;" edge="1" parent="1" source="PGIYKK-JV2RwreKTZmfG-79" target="PGIYKK-JV2RwreKTZmfG-81">
          <mxGeometry relative="1" as="geometry" />
        </mxCell>
        <mxCell id="PGIYKK-JV2RwreKTZmfG-79" value="Linear" style="rounded=1;whiteSpace=wrap;html=1;fontSize=24;fillColor=#dae8fc;strokeColor=#6c8ebf;" vertex="1" parent="1">
          <mxGeometry x="333" y="2021" width="136" height="75" as="geometry" />
        </mxCell>
        <mxCell id="PGIYKK-JV2RwreKTZmfG-80" value="Linear" style="rounded=1;whiteSpace=wrap;html=1;fontSize=24;fillColor=#dae8fc;strokeColor=#6c8ebf;" vertex="1" parent="1">
          <mxGeometry x="162" y="1901" width="136" height="75" as="geometry" />
        </mxCell>
        <mxCell id="PGIYKK-JV2RwreKTZmfG-81" value="Linear" style="rounded=1;whiteSpace=wrap;html=1;fontSize=24;fillColor=#dae8fc;strokeColor=#6c8ebf;" vertex="1" parent="1">
          <mxGeometry x="162" y="2021" width="136" height="75" as="geometry" />
        </mxCell>
        <mxCell id="PGIYKK-JV2RwreKTZmfG-95" value="&lt;font style=&quot;font-size: 16px;&quot;&gt;25x1&lt;/font&gt;" style="text;html=1;align=center;verticalAlign=middle;resizable=0;points=[];autosize=1;strokeColor=none;fillColor=none;fontSize=24;" vertex="1" parent="1">
          <mxGeometry x="205" y="1871.5" width="45" height="36" as="geometry" />
        </mxCell>
        <mxCell id="PGIYKK-JV2RwreKTZmfG-96" value="64x1" style="text;html=1;align=center;verticalAlign=middle;resizable=0;points=[];autosize=1;strokeColor=none;fillColor=none;fontSize=16;" vertex="1" parent="1">
          <mxGeometry x="378.5" y="1879" width="45" height="23" as="geometry" />
        </mxCell>
        <mxCell id="PGIYKK-JV2RwreKTZmfG-97" value="128x1" style="text;html=1;align=center;verticalAlign=middle;resizable=0;points=[];autosize=1;strokeColor=none;fillColor=none;fontSize=16;" vertex="1" parent="1">
          <mxGeometry x="543" y="1879" width="54" height="23" as="geometry" />
        </mxCell>
        <mxCell id="PGIYKK-JV2RwreKTZmfG-98" value="256x1" style="text;html=1;align=center;verticalAlign=middle;resizable=0;points=[];autosize=1;strokeColor=none;fillColor=none;fontSize=16;" vertex="1" parent="1">
          <mxGeometry x="710" y="1879" width="54" height="23" as="geometry" />
        </mxCell>
        <mxCell id="PGIYKK-JV2RwreKTZmfG-99" value="&lt;font style=&quot;font-size: 16px;&quot;&gt;1x1&lt;/font&gt;" style="text;html=1;align=center;verticalAlign=middle;resizable=0;points=[];autosize=1;strokeColor=none;fillColor=none;fontSize=24;" vertex="1" parent="1">
          <mxGeometry x="212.5" y="2086" width="36" height="36" as="geometry" />
        </mxCell>
        <mxCell id="PGIYKK-JV2RwreKTZmfG-100" value="64x1" style="text;html=1;align=center;verticalAlign=middle;resizable=0;points=[];autosize=1;strokeColor=none;fillColor=none;fontSize=16;" vertex="1" parent="1">
          <mxGeometry x="381" y="2093.5" width="45" height="23" as="geometry" />
        </mxCell>
        <mxCell id="PGIYKK-JV2RwreKTZmfG-101" value="128x1" style="text;html=1;align=center;verticalAlign=middle;resizable=0;points=[];autosize=1;strokeColor=none;fillColor=none;fontSize=16;" vertex="1" parent="1">
          <mxGeometry x="545.5" y="2093.5" width="54" height="23" as="geometry" />
        </mxCell>
        <mxCell id="PGIYKK-JV2RwreKTZmfG-102" value="256x1" style="text;html=1;align=center;verticalAlign=middle;resizable=0;points=[];autosize=1;strokeColor=none;fillColor=none;fontSize=16;" vertex="1" parent="1">
          <mxGeometry x="712.5" y="2093.5" width="54" height="23" as="geometry" />
        </mxCell>
        <mxCell id="PGIYKK-JV2RwreKTZmfG-105" value="&lt;font style=&quot;font-size: 20px;&quot;&gt;Value Policy&lt;/font&gt;" style="text;html=1;align=center;verticalAlign=middle;resizable=0;points=[];autosize=1;strokeColor=none;fillColor=none;fontSize=16;" vertex="1" parent="1">
          <mxGeometry x="426.5" y="2116.5" width="119" height="24" as="geometry" />
        </mxCell>
        <mxCell id="PGIYKK-JV2RwreKTZmfG-106" value="&lt;font style=&quot;font-size: 20px;&quot;&gt;Action Policy&lt;/font&gt;" style="text;html=1;align=center;verticalAlign=middle;resizable=0;points=[];autosize=1;strokeColor=none;fillColor=none;fontSize=16;" vertex="1" parent="1">
          <mxGeometry x="423.5" y="1847.5" width="125" height="24" as="geometry" />
        </mxCell>
        <mxCell id="PGIYKK-JV2RwreKTZmfG-107" value="256x1" style="text;html=1;align=center;verticalAlign=middle;resizable=0;points=[];autosize=1;strokeColor=none;fillColor=none;fontSize=20;" vertex="1" parent="1">
          <mxGeometry x="990" y="1984.5" width="65" height="28" as="geometry" />
        </mxCell>
        <mxCell id="PGIYKK-JV2RwreKTZmfG-108" value="6510x1" style="text;html=1;align=center;verticalAlign=middle;resizable=0;points=[];autosize=1;strokeColor=none;fillColor=none;fontSize=20;" vertex="1" parent="1">
          <mxGeometry x="989.5" y="1857.5" width="76" height="28" as="geometry" />
        </mxCell>
        <mxCell id="PGIYKK-JV2RwreKTZmfG-109" value="(15,11,11) @ t-1" style="text;html=1;align=center;verticalAlign=middle;resizable=0;points=[];autosize=1;strokeColor=none;fillColor=none;fontSize=20;" vertex="1" parent="1">
          <mxGeometry x="-525" y="1984.5" width="153" height="28" as="geometry" />
        </mxCell>
        <mxCell id="PGIYKK-JV2RwreKTZmfG-113" style="edgeStyle=orthogonalEdgeStyle;rounded=0;orthogonalLoop=1;jettySize=auto;html=1;exitX=0;exitY=0;exitDx=570;exitDy=160;exitPerimeter=0;entryX=1.01;entryY=0.566;entryDx=0;entryDy=0;entryPerimeter=0;fontSize=20;" edge="1" parent="1" source="PGIYKK-JV2RwreKTZmfG-110" target="PGIYKK-JV2RwreKTZmfG-109">
          <mxGeometry relative="1" as="geometry">
            <Array as="points">
              <mxPoint x="-326" y="2001" />
              <mxPoint x="-356" y="2001" />
            </Array>
          </mxGeometry>
        </mxCell>
        <mxCell id="PGIYKK-JV2RwreKTZmfG-110" value="" style="shape=cube;whiteSpace=wrap;html=1;boundedLbl=1;backgroundOutline=1;darkOpacity=0.05;darkOpacity2=0.1;direction=south;size=150;fillColor=#b0e3e6;strokeColor=#0e8088;" vertex="1" parent="1">
          <mxGeometry x="-336.5" y="1388" width="170" height="570" as="geometry" />
        </mxCell>
        <mxCell id="PGIYKK-JV2RwreKTZmfG-117" style="edgeStyle=orthogonalEdgeStyle;rounded=0;orthogonalLoop=1;jettySize=auto;html=1;exitX=0;exitY=0;exitDx=570;exitDy=160;exitPerimeter=0;entryX=0.544;entryY=0.051;entryDx=0;entryDy=0;entryPerimeter=0;fontSize=20;" edge="1" parent="1" source="PGIYKK-JV2RwreKTZmfG-111" target="PGIYKK-JV2RwreKTZmfG-114">
          <mxGeometry relative="1" as="geometry">
            <Array as="points">
              <mxPoint x="-308" y="1988" />
              <mxPoint x="-307" y="1988" />
              <mxPoint x="-307" y="2018" />
            </Array>
          </mxGeometry>
        </mxCell>
        <mxCell id="PGIYKK-JV2RwreKTZmfG-111" value="" style="shape=cube;whiteSpace=wrap;html=1;boundedLbl=1;backgroundOutline=1;darkOpacity=0.05;darkOpacity2=0.1;direction=south;size=150;fillColor=#bac8d3;strokeColor=#23445d;" vertex="1" parent="1">
          <mxGeometry x="-317.5" y="1388" width="170" height="570" as="geometry" />
        </mxCell>
        <mxCell id="PGIYKK-JV2RwreKTZmfG-116" style="edgeStyle=orthogonalEdgeStyle;rounded=0;orthogonalLoop=1;jettySize=auto;html=1;exitX=0;exitY=0;exitDx=570;exitDy=160;exitPerimeter=0;entryX=-0.007;entryY=0.566;entryDx=0;entryDy=0;entryPerimeter=0;fontSize=20;" edge="1" parent="1" source="PGIYKK-JV2RwreKTZmfG-112" target="PGIYKK-JV2RwreKTZmfG-115">
          <mxGeometry relative="1" as="geometry">
            <Array as="points">
              <mxPoint x="-288" y="2000" />
            </Array>
          </mxGeometry>
        </mxCell>
        <mxCell id="PGIYKK-JV2RwreKTZmfG-112" value="" style="shape=cube;whiteSpace=wrap;html=1;boundedLbl=1;backgroundOutline=1;darkOpacity=0.05;darkOpacity2=0.1;direction=south;size=150;fillColor=#f5f5f5;fontColor=#333333;strokeColor=#666666;" vertex="1" parent="1">
          <mxGeometry x="-297.5" y="1388" width="170" height="570" as="geometry" />
        </mxCell>
        <mxCell id="PGIYKK-JV2RwreKTZmfG-114" value="(15,11,11) @ t" style="text;html=1;align=center;verticalAlign=middle;resizable=0;points=[];autosize=1;strokeColor=none;fillColor=none;fontSize=20;" vertex="1" parent="1">
          <mxGeometry x="-380" y="2030" width="135" height="28" as="geometry" />
        </mxCell>
        <mxCell id="PGIYKK-JV2RwreKTZmfG-115" value="(4,11,11) --&amp;gt; one-hot of agent types" style="text;html=1;align=center;verticalAlign=middle;resizable=0;points=[];autosize=1;strokeColor=none;fillColor=none;fontSize=20;" vertex="1" parent="1">
          <mxGeometry x="-248" y="1984.5" width="322" height="28" as="geometry" />
        </mxCell>
        <mxCell id="PGIYKK-JV2RwreKTZmfG-121" value="4x1" style="text;html=1;align=center;verticalAlign=middle;resizable=0;points=[];autosize=1;strokeColor=none;fillColor=none;fontSize=20;" vertex="1" parent="1">
          <mxGeometry x="53" y="1721" width="42" height="28" as="geometry" />
        </mxCell>
        <mxCell id="PGIYKK-JV2RwreKTZmfG-122" value="8x1" style="text;html=1;align=center;verticalAlign=middle;resizable=0;points=[];autosize=1;strokeColor=none;fillColor=none;fontSize=20;" vertex="1" parent="1">
          <mxGeometry x="633" y="1721" width="42" height="28" as="geometry" />
        </mxCell>
      </root>
    </mxGraphModel>
  </diagram>
</mxfile>
